<svg xmlns="http://www.w3.org/2000/svg" xmlns:xlink="http://www.w3.org/1999/xlink" width="1295" zoomAndPan="magnify" viewBox="0 0 375 270.96" height="351" preserveAspectRatio="xMidYMid meet" version="1.0"><defs><g/><clipPath id="5b38b52703"><path d="M 58 22 L 374.972656 22 L 374.972656 242 L 58 242 Z M 58 22 " clip-rule="nonzero"/></clipPath></defs><g clip-path="url(#5b38b52703)"><g fill="#ff3333" fill-opacity="1"><g transform="translate(55.879553, 193.928698)"><g><path d="M 136.453125 -170.671875 C 140.035156 -169.378906 141.972656 -166.722656 142.265625 -162.703125 C 142.410156 -162.566406 142.484375 -162.351562 142.484375 -162.0625 C 142.484375 -157.90625 140.328125 -150.226562 136.015625 -139.03125 C 133.578125 -132.570312 130.351562 -124.679688 126.34375 -115.359375 C 122.46875 -106.035156 117.585938 -94.84375 111.703125 -81.78125 C 110.410156 -78.769531 108.90625 -75.1875 107.1875 -71.03125 C 105.457031 -66.863281 103.59375 -62.34375 101.59375 -57.46875 C 98 -48.71875 94.191406 -39.25 90.171875 -29.0625 C 86.160156 -19.007812 82.503906 -9.609375 79.203125 -0.859375 C 74.179688 12.484375 69.585938 23.890625 65.421875 33.359375 C 61.410156 42.972656 59.117188 47.78125 58.546875 47.78125 L 58.328125 47.78125 C 57.609375 47.78125 57.101562 46.847656 56.8125 44.984375 C 56.382812 42.972656 56.171875 39.597656 56.171875 34.859375 C 56.171875 25.535156 57.675781 14.847656 60.6875 2.796875 C 63.707031 -9.398438 68.515625 -23.675781 75.109375 -40.03125 C 78.265625 -47.925781 80.847656 -54.742188 82.859375 -60.484375 C 84.867188 -66.222656 85.726562 -69.234375 85.4375 -69.515625 C 85.15625 -69.804688 84.367188 -69.878906 83.078125 -69.734375 C 81.929688 -69.585938 80.710938 -69.300781 79.421875 -68.875 C 77.984375 -68.582031 74.828125 -67.9375 69.953125 -66.9375 C 65.066406 -66.070312 59.898438 -65.210938 54.453125 -64.359375 C 50.003906 -63.640625 43.332031 -62.632812 34.4375 -61.34375 L 20.875 -36.796875 C 14.851562 -25.898438 10.40625 -18.515625 7.53125 -14.640625 C 4.664062 -10.765625 3.160156 -9.972656 3.015625 -12.265625 C 3.015625 -12.835938 4.019531 -15.421875 6.03125 -20.015625 C 8.039062 -24.609375 10.476562 -29.914062 13.34375 -35.9375 C 16.351562 -42.113281 18.9375 -47.640625 21.09375 -52.515625 C 23.25 -57.390625 24.328125 -59.972656 24.328125 -60.265625 C 23.460938 -60.410156 22.597656 -60.484375 21.734375 -60.484375 C 20.878906 -60.617188 19.734375 -60.6875 18.296875 -60.6875 C 16.859375 -60.6875 15.421875 -61.117188 13.984375 -61.984375 C 12.691406 -62.847656 11.6875 -63.707031 10.96875 -64.5625 C 9.25 -67 9.679688 -69.15625 12.265625 -71.03125 C 14.847656 -73.03125 19.007812 -74.316406 24.75 -74.890625 C 28.914062 -75.179688 31.785156 -75.898438 33.359375 -77.046875 C 35.078125 -78.054688 37.445312 -80.5 40.46875 -84.375 C 54.382812 -103.164062 67.941406 -119.304688 81.140625 -132.796875 C 94.484375 -146.421875 106.820312 -156.820312 118.15625 -164 C 121.75 -166.289062 124.546875 -168.015625 126.546875 -169.171875 C 128.554688 -170.316406 130.28125 -170.960938 131.71875 -171.109375 C 132.144531 -171.242188 132.503906 -171.3125 132.796875 -171.3125 L 134.078125 -171.3125 C 134.796875 -171.175781 135.585938 -170.960938 136.453125 -170.671875 Z M 61.125 -98.359375 C 57.25 -93.484375 54.019531 -89.175781 51.4375 -85.4375 C 49.144531 -82 48.066406 -79.921875 48.203125 -79.203125 L 48.203125 -78.984375 C 48.492188 -78.410156 50.578125 -78.125 54.453125 -78.125 L 55.3125 -78.125 C 59.613281 -78.125 64.5625 -78.410156 70.15625 -78.984375 C 78.914062 -79.847656 84.726562 -80.566406 87.59375 -81.140625 C 90.46875 -81.859375 92.476562 -83.003906 93.625 -84.578125 C 94.488281 -85.734375 96.5 -89.535156 99.65625 -95.984375 C 102.945312 -102.296875 106.53125 -109.398438 110.40625 -117.296875 C 115 -126.765625 119.234375 -135.734375 123.109375 -144.203125 C 127.128906 -152.671875 129.140625 -157.191406 129.140625 -157.765625 L 129.140625 -157.96875 C 128.992188 -158.550781 128.773438 -158.910156 128.484375 -159.046875 C 128.203125 -159.335938 127.773438 -159.410156 127.203125 -159.265625 L 126.984375 -159.265625 C 124.109375 -158.984375 119.015625 -155.898438 111.703125 -150.015625 C 104.378906 -144.128906 96.488281 -136.882812 88.03125 -128.28125 C 83.289062 -123.539062 78.625 -118.660156 74.03125 -113.640625 C 69.445312 -108.617188 65.144531 -103.523438 61.125 -98.359375 Z M 61.125 -98.359375 "/></g></g><g transform="translate(161.771237, 193.928698)"><g><path d="M 3.65625 -36.796875 C 0.644531 -39.378906 -1.21875 -41.535156 -1.9375 -43.265625 C -2.507812 -44.835938 -2.796875 -47.347656 -2.796875 -50.796875 L -2.796875 -52.078125 C -2.796875 -54.234375 -2.296875 -56.890625 -1.296875 -60.046875 C -0.429688 -63.347656 0.644531 -66.648438 1.9375 -69.953125 C 4.09375 -74.972656 6.316406 -79.488281 8.609375 -83.5 C 10.765625 -86.945312 12.414062 -88.742188 13.5625 -88.890625 L 13.984375 -88.890625 C 14.554688 -88.597656 15.0625 -88.3125 15.5 -88.03125 C 15.925781 -87.738281 16.140625 -87.453125 16.140625 -87.171875 C 16.140625 -87.023438 15.78125 -85.226562 15.0625 -81.78125 C 14.34375 -78.34375 13.484375 -74.253906 12.484375 -69.515625 C 10.328125 -59.617188 9.820312 -53.378906 10.96875 -50.796875 C 12.125 -48.210938 15.859375 -46.921875 22.171875 -46.921875 C 24.316406 -46.921875 29.984375 -47.640625 39.171875 -49.078125 C 48.210938 -50.648438 58.039062 -52.441406 68.65625 -54.453125 C 90.894531 -58.898438 106.535156 -61.769531 115.578125 -63.0625 C 124.617188 -64.351562 129.140625 -64.28125 129.140625 -62.84375 C 129.140625 -62.269531 128.273438 -61.484375 126.546875 -60.484375 C 124.972656 -59.472656 122.820312 -58.394531 120.09375 -57.25 C 114.925781 -54.957031 108.179688 -52.445312 99.859375 -49.71875 C 91.398438 -46.988281 82.722656 -44.40625 73.828125 -41.96875 C 64.640625 -39.382812 55.742188 -37.160156 47.140625 -35.296875 C 38.671875 -33.429688 31.851562 -32.351562 26.6875 -32.0625 C 21.945312 -31.78125 18.289062 -31.640625 15.71875 -31.640625 C 13.707031 -31.640625 12.269531 -31.710938 11.40625 -31.859375 C 9.539062 -32.285156 6.957031 -33.929688 3.65625 -36.796875 Z M 17.65625 -102.015625 C 17.070312 -103.015625 16.78125 -104.378906 16.78125 -106.109375 C 16.78125 -107.828125 17.070312 -109.976562 17.65625 -112.5625 C 18.507812 -117.875 19.796875 -121.460938 21.515625 -123.328125 C 22.953125 -125.191406 24.601562 -126.125 26.46875 -126.125 C 27.613281 -126.125 28.90625 -125.691406 30.34375 -124.828125 C 32.925781 -123.253906 34.21875 -121.03125 34.21875 -118.15625 C 34.21875 -117.300781 34.078125 -116.441406 33.796875 -115.578125 C 33.210938 -112.992188 31.273438 -109.550781 27.984375 -105.25 C 24.679688 -101.082031 22.382812 -99 21.09375 -99 C 20.664062 -99 20.09375 -99.285156 19.375 -99.859375 C 18.65625 -100.429688 18.082031 -101.148438 17.65625 -102.015625 Z M 17.65625 -102.015625 "/></g></g><g transform="translate(285.311536, 193.928698)"><g><path d="M 33.140625 -99.21875 C 33.578125 -96.78125 33.722656 -93.695312 33.578125 -89.96875 C 33.429688 -86.238281 31.207031 -82.003906 26.90625 -77.265625 C 25.1875 -75.679688 23.679688 -74.316406 22.390625 -73.171875 C 20.953125 -72.171875 20.445312 -71.457031 20.875 -71.03125 C 21.164062 -70.738281 22.097656 -70.738281 23.671875 -71.03125 C 25.109375 -71.3125 27.765625 -71.882812 31.640625 -72.75 C 40.679688 -74.894531 47.640625 -75.96875 52.515625 -75.96875 C 57.253906 -75.832031 60.625 -74.6875 62.625 -72.53125 C 64.925781 -69.945312 66.078125 -67.003906 66.078125 -63.703125 C 65.929688 -60.265625 64.132812 -55.316406 60.6875 -48.859375 C 58.820312 -45.410156 56.457031 -41.390625 53.59375 -36.796875 C 50.71875 -32.210938 47.273438 -26.832031 43.265625 -20.65625 C 39.242188 -14.78125 35.941406 -9.546875 33.359375 -4.953125 C 30.773438 -0.359375 29.695312 2.148438 30.125 2.578125 C 30.84375 3.296875 35.507812 0.710938 44.125 -5.171875 C 52.582031 -11.046875 62.484375 -18.289062 73.828125 -26.90625 C 82.859375 -33.644531 90.460938 -39.3125 96.640625 -43.90625 C 102.804688 -48.644531 107.828125 -52.445312 111.703125 -55.3125 C 119.160156 -60.757812 123.820312 -63.988281 125.6875 -65 C 127.414062 -66 128.492188 -66.285156 128.921875 -65.859375 C 129.066406 -65.710938 129.140625 -65.566406 129.140625 -65.421875 C 129.140625 -64.992188 128.707031 -64.207031 127.84375 -63.0625 C 126.695312 -61.625 125.117188 -59.757812 123.109375 -57.46875 C 119.234375 -53.300781 113.992188 -47.988281 107.390625 -41.53125 C 100.796875 -35.21875 93.910156 -28.765625 86.734375 -22.171875 C 79.421875 -15.566406 72.25 -9.394531 65.21875 -3.65625 C 58.320312 1.9375 52.796875 6.023438 48.640625 8.609375 C 44.335938 11.191406 40.679688 13.203125 37.671875 14.640625 C 34.648438 16.210938 32.066406 17.359375 29.921875 18.078125 C 26.898438 19.222656 24.601562 19.796875 23.03125 19.796875 C 22.457031 19.796875 22.023438 19.722656 21.734375 19.578125 C 20.160156 19.148438 19.015625 18.722656 18.296875 18.296875 C 15.421875 17.148438 13.625 15 12.90625 11.84375 C 12.195312 8.539062 12.703125 4.878906 14.421875 0.859375 C 15.285156 -1.003906 17.648438 -5.164062 21.515625 -11.625 C 25.535156 -18.082031 29.984375 -25.039062 34.859375 -32.5 C 39.597656 -39.8125 43.691406 -46.269531 47.140625 -51.875 C 50.578125 -57.46875 52.296875 -60.476562 52.296875 -60.90625 C 52.296875 -62.195312 50.644531 -62.703125 47.34375 -62.421875 C 43.90625 -62.128906 39.457031 -61.195312 34 -59.625 C 31.414062 -58.757812 28.191406 -57.96875 24.328125 -57.25 C 20.304688 -56.675781 16.859375 -56.316406 13.984375 -56.171875 C 9.535156 -56.023438 6.453125 -56.238281 4.734375 -56.8125 C 3.015625 -57.394531 1.148438 -58.90625 -0.859375 -61.34375 C -3.734375 -64.644531 -5.171875 -68.160156 -5.171875 -71.890625 L -5.171875 -72.09375 C -5.171875 -75.96875 -3.59375 -80.992188 -0.4375 -87.171875 C 2.863281 -93.910156 7.023438 -99.21875 12.046875 -103.09375 C 17.066406 -106.96875 21.515625 -108.90625 25.390625 -108.90625 C 27.691406 -108.90625 29.414062 -107.828125 30.5625 -105.671875 C 31.851562 -103.660156 32.710938 -101.507812 33.140625 -99.21875 Z M 9.46875 -78.125 C 9.757812 -77.84375 10.117188 -77.769531 10.546875 -77.90625 C 11.265625 -77.90625 12.050781 -78.265625 12.90625 -78.984375 C 14.34375 -80.128906 15.78125 -81.632812 17.21875 -83.5 C 18.9375 -85.800781 20.367188 -88.097656 21.515625 -90.390625 C 22.097656 -91.828125 22.390625 -92.832031 22.390625 -93.40625 C 22.390625 -93.832031 22.242188 -94.046875 21.953125 -94.046875 L 21.734375 -94.046875 C 20.160156 -94.046875 17.9375 -92.253906 15.0625 -88.671875 C 12.050781 -84.648438 10.1875 -81.132812 9.46875 -78.125 Z M 9.46875 -78.125 "/></g></g></g></g></svg>