<svg xmlns="http://www.w3.org/2000/svg" xmlns:xlink="http://www.w3.org/1999/xlink" width="1295" zoomAndPan="magnify" viewBox="0 0 375 270.96" height="351" preserveAspectRatio="xMidYMid meet" version="1.0"><defs><g/><clipPath id="e103bfd6a1"><path d="M 60 24 L 374.972656 24 L 374.972656 243 L 60 243 Z M 60 24 " clip-rule="nonzero"/></clipPath></defs><g clip-path="url(#e103bfd6a1)"><g fill="#ffffff" fill-opacity="1"><g transform="translate(57.85341, 195.244988)"><g><path d="M 135.828125 -169.890625 C 139.398438 -168.597656 141.328125 -165.953125 141.609375 -161.953125 C 141.753906 -161.816406 141.828125 -161.601562 141.828125 -161.3125 C 141.828125 -157.175781 139.679688 -149.535156 135.390625 -138.390625 C 132.960938 -131.960938 129.75 -124.109375 125.75 -114.828125 C 121.894531 -105.546875 117.039062 -94.40625 111.1875 -81.40625 C 109.90625 -78.40625 108.40625 -74.835938 106.6875 -70.703125 C 104.976562 -66.554688 103.125 -62.054688 101.125 -57.203125 C 97.550781 -48.484375 93.765625 -39.054688 89.765625 -28.921875 C 85.765625 -18.921875 82.125 -9.566406 78.84375 -0.859375 C 73.84375 12.421875 69.269531 23.773438 65.125 33.203125 C 61.125 42.773438 58.835938 47.5625 58.265625 47.5625 L 58.0625 47.5625 C 57.34375 47.5625 56.84375 46.632812 56.5625 44.78125 C 56.132812 42.78125 55.921875 39.421875 55.921875 34.703125 C 55.921875 25.421875 57.414062 14.78125 60.40625 2.78125 C 63.40625 -9.351562 68.191406 -23.5625 74.765625 -39.84375 C 77.910156 -47.695312 80.484375 -54.484375 82.484375 -60.203125 C 84.484375 -65.910156 85.335938 -68.910156 85.046875 -69.203125 C 84.765625 -69.484375 83.976562 -69.550781 82.6875 -69.40625 C 81.550781 -69.269531 80.335938 -68.988281 79.046875 -68.5625 C 77.617188 -68.269531 74.476562 -67.625 69.625 -66.625 C 64.769531 -65.769531 59.628906 -64.914062 54.203125 -64.0625 C 49.773438 -63.34375 43.132812 -62.34375 34.28125 -61.0625 L 20.78125 -36.640625 C 14.78125 -25.785156 10.351562 -18.425781 7.5 -14.5625 C 4.644531 -10.707031 3.144531 -9.925781 3 -12.21875 C 3 -12.78125 4 -15.347656 6 -19.921875 C 8 -24.492188 10.425781 -29.78125 13.28125 -35.78125 C 16.28125 -41.914062 18.851562 -47.410156 21 -52.265625 C 23.132812 -57.128906 24.203125 -59.703125 24.203125 -59.984375 C 23.347656 -60.128906 22.492188 -60.203125 21.640625 -60.203125 C 20.785156 -60.335938 19.640625 -60.40625 18.203125 -60.40625 C 16.773438 -60.40625 15.347656 -60.835938 13.921875 -61.703125 C 12.640625 -62.554688 11.640625 -63.410156 10.921875 -64.265625 C 9.210938 -66.691406 9.644531 -68.835938 12.21875 -70.703125 C 14.78125 -72.703125 18.921875 -73.984375 24.640625 -74.546875 C 28.773438 -74.835938 31.628906 -75.554688 33.203125 -76.703125 C 34.921875 -77.691406 37.28125 -80.117188 40.28125 -83.984375 C 54.132812 -102.691406 67.628906 -118.757812 80.765625 -132.1875 C 94.046875 -145.75 106.328125 -156.101562 117.609375 -163.25 C 121.179688 -165.53125 123.96875 -167.242188 125.96875 -168.390625 C 127.96875 -169.523438 129.679688 -170.164062 131.109375 -170.3125 C 131.535156 -170.457031 131.894531 -170.53125 132.1875 -170.53125 L 133.46875 -170.53125 C 134.175781 -170.382812 134.960938 -170.171875 135.828125 -169.890625 Z M 60.84375 -97.90625 C 56.988281 -93.050781 53.773438 -88.765625 51.203125 -85.046875 C 48.921875 -81.617188 47.847656 -79.550781 47.984375 -78.84375 L 47.984375 -78.625 C 48.273438 -78.050781 50.347656 -77.765625 54.203125 -77.765625 L 55.0625 -77.765625 C 59.34375 -77.765625 64.269531 -78.050781 69.84375 -78.625 C 78.550781 -79.476562 84.332031 -80.191406 87.1875 -80.765625 C 90.050781 -81.484375 92.050781 -82.625 93.1875 -84.1875 C 94.050781 -85.332031 96.050781 -89.117188 99.1875 -95.546875 C 102.476562 -101.828125 106.050781 -108.894531 109.90625 -116.75 C 114.46875 -126.175781 118.679688 -135.101562 122.546875 -143.53125 C 126.546875 -151.957031 128.546875 -156.457031 128.546875 -157.03125 L 128.546875 -157.25 C 128.398438 -157.820312 128.179688 -158.175781 127.890625 -158.3125 C 127.609375 -158.601562 127.179688 -158.675781 126.609375 -158.53125 L 126.390625 -158.53125 C 123.535156 -158.25 118.46875 -155.179688 111.1875 -149.328125 C 103.90625 -143.460938 96.050781 -136.25 87.625 -127.6875 C 82.90625 -122.96875 78.265625 -118.109375 73.703125 -113.109375 C 69.128906 -108.109375 64.84375 -103.039062 60.84375 -97.90625 Z M 60.84375 -97.90625 "/></g></g><g transform="translate(163.255096, 195.244988)"><g><path d="M 3.640625 -36.640625 C 0.640625 -39.203125 -1.210938 -41.34375 -1.921875 -43.0625 C -2.492188 -44.632812 -2.78125 -47.132812 -2.78125 -50.5625 L -2.78125 -51.84375 C -2.78125 -53.988281 -2.28125 -56.628906 -1.28125 -59.765625 C -0.425781 -63.054688 0.640625 -66.34375 1.921875 -69.625 C 4.066406 -74.625 6.28125 -79.125 8.5625 -83.125 C 10.707031 -86.550781 12.351562 -88.335938 13.5 -88.484375 L 13.921875 -88.484375 C 14.492188 -88.191406 14.992188 -87.90625 15.421875 -87.625 C 15.847656 -87.332031 16.0625 -87.046875 16.0625 -86.765625 C 16.0625 -86.617188 15.707031 -84.832031 15 -81.40625 C 14.28125 -77.976562 13.421875 -73.910156 12.421875 -69.203125 C 10.285156 -59.347656 9.785156 -53.132812 10.921875 -50.5625 C 12.066406 -47.988281 15.78125 -46.703125 22.0625 -46.703125 C 24.207031 -46.703125 29.847656 -47.414062 38.984375 -48.84375 C 47.984375 -50.414062 57.769531 -52.203125 68.34375 -54.203125 C 90.476562 -58.628906 106.046875 -61.484375 115.046875 -62.765625 C 124.046875 -64.054688 128.546875 -63.988281 128.546875 -62.5625 C 128.546875 -61.988281 127.6875 -61.203125 125.96875 -60.203125 C 124.394531 -59.203125 122.253906 -58.128906 119.546875 -56.984375 C 114.398438 -54.703125 107.6875 -52.203125 99.40625 -49.484375 C 90.976562 -46.773438 82.335938 -44.207031 73.484375 -41.78125 C 64.335938 -39.207031 55.484375 -36.992188 46.921875 -35.140625 C 38.492188 -33.273438 31.707031 -32.203125 26.5625 -31.921875 C 21.851562 -31.640625 18.210938 -31.5 15.640625 -31.5 C 13.640625 -31.5 12.210938 -31.566406 11.359375 -31.703125 C 9.492188 -32.128906 6.921875 -33.773438 3.640625 -36.640625 Z M 17.5625 -101.546875 C 16.988281 -102.546875 16.703125 -103.898438 16.703125 -105.609375 C 16.703125 -107.328125 16.988281 -109.472656 17.5625 -112.046875 C 18.425781 -117.328125 19.710938 -120.894531 21.421875 -122.75 C 22.847656 -124.613281 24.488281 -125.546875 26.34375 -125.546875 C 27.488281 -125.546875 28.773438 -125.113281 30.203125 -124.25 C 32.773438 -122.6875 34.0625 -120.472656 34.0625 -117.609375 C 34.0625 -116.753906 33.921875 -115.898438 33.640625 -115.046875 C 33.066406 -112.472656 31.132812 -109.046875 27.84375 -104.765625 C 24.5625 -100.617188 22.28125 -98.546875 21 -98.546875 C 20.570312 -98.546875 20 -98.832031 19.28125 -99.40625 C 18.5625 -99.976562 17.988281 -100.691406 17.5625 -101.546875 Z M 17.5625 -101.546875 "/></g></g><g transform="translate(286.22373, 195.244988)"><g><path d="M 32.984375 -98.765625 C 33.421875 -96.335938 33.566406 -93.265625 33.421875 -89.546875 C 33.273438 -85.835938 31.0625 -81.625 26.78125 -76.90625 C 25.0625 -75.332031 23.5625 -73.976562 22.28125 -72.84375 C 20.851562 -71.84375 20.351562 -71.128906 20.78125 -70.703125 C 21.0625 -70.410156 21.988281 -70.410156 23.5625 -70.703125 C 24.988281 -70.984375 27.632812 -71.550781 31.5 -72.40625 C 40.488281 -74.550781 47.410156 -75.625 52.265625 -75.625 C 56.984375 -75.476562 60.34375 -74.335938 62.34375 -72.203125 C 64.625 -69.628906 65.765625 -66.695312 65.765625 -63.40625 C 65.628906 -59.976562 63.84375 -55.050781 60.40625 -48.625 C 58.550781 -45.195312 56.195312 -41.203125 53.34375 -36.640625 C 50.488281 -32.066406 47.0625 -26.707031 43.0625 -20.5625 C 39.0625 -14.707031 35.773438 -9.492188 33.203125 -4.921875 C 30.628906 -0.359375 29.5625 2.140625 30 2.578125 C 30.707031 3.285156 35.347656 0.710938 43.921875 -5.140625 C 52.347656 -10.992188 62.203125 -18.207031 73.484375 -26.78125 C 82.484375 -33.488281 90.050781 -39.128906 96.1875 -43.703125 C 102.332031 -48.410156 107.332031 -52.195312 111.1875 -55.0625 C 118.613281 -60.488281 123.253906 -63.703125 125.109375 -64.703125 C 126.828125 -65.703125 127.898438 -65.988281 128.328125 -65.5625 C 128.472656 -65.414062 128.546875 -65.269531 128.546875 -65.125 C 128.546875 -64.695312 128.113281 -63.910156 127.25 -62.765625 C 126.113281 -61.335938 124.546875 -59.484375 122.546875 -57.203125 C 118.679688 -53.054688 113.46875 -47.769531 106.90625 -41.34375 C 100.332031 -35.0625 93.476562 -28.632812 86.34375 -22.0625 C 79.050781 -15.5 71.90625 -9.359375 64.90625 -3.640625 C 58.050781 1.929688 52.554688 6 48.421875 8.5625 C 44.128906 11.132812 40.484375 13.132812 37.484375 14.5625 C 34.484375 16.132812 31.914062 17.28125 29.78125 18 C 26.78125 19.132812 24.492188 19.703125 22.921875 19.703125 C 22.347656 19.703125 21.921875 19.632812 21.640625 19.5 C 20.066406 19.070312 18.921875 18.640625 18.203125 18.203125 C 15.347656 17.066406 13.566406 14.925781 12.859375 11.78125 C 12.140625 8.5 12.640625 4.859375 14.359375 0.859375 C 15.210938 -0.992188 17.566406 -5.132812 21.421875 -11.5625 C 25.421875 -17.988281 29.847656 -24.914062 34.703125 -32.34375 C 39.421875 -39.632812 43.492188 -46.0625 46.921875 -51.625 C 50.347656 -57.195312 52.0625 -60.195312 52.0625 -60.625 C 52.0625 -61.914062 50.414062 -62.414062 47.125 -62.125 C 43.695312 -61.84375 39.269531 -60.914062 33.84375 -59.34375 C 31.28125 -58.488281 28.066406 -57.703125 24.203125 -56.984375 C 20.203125 -56.410156 16.773438 -56.054688 13.921875 -55.921875 C 9.492188 -55.773438 6.425781 -55.988281 4.71875 -56.5625 C 3 -57.132812 1.140625 -58.632812 -0.859375 -61.0625 C -3.710938 -64.34375 -5.140625 -67.835938 -5.140625 -71.546875 L -5.140625 -71.765625 C -5.140625 -75.617188 -3.566406 -80.617188 -0.421875 -86.765625 C 2.859375 -93.472656 7 -98.757812 12 -102.625 C 17 -106.476562 21.425781 -108.40625 25.28125 -108.40625 C 27.5625 -108.40625 29.273438 -107.332031 30.421875 -105.1875 C 31.703125 -103.1875 32.554688 -101.046875 32.984375 -98.765625 Z M 9.421875 -77.765625 C 9.710938 -77.484375 10.070312 -77.410156 10.5 -77.546875 C 11.207031 -77.546875 11.992188 -77.90625 12.859375 -78.625 C 14.285156 -79.769531 15.710938 -81.269531 17.140625 -83.125 C 18.847656 -85.40625 20.273438 -87.691406 21.421875 -89.984375 C 21.992188 -91.410156 22.28125 -92.410156 22.28125 -92.984375 C 22.28125 -93.410156 22.140625 -93.625 21.859375 -93.625 L 21.640625 -93.625 C 20.066406 -93.625 17.851562 -91.835938 15 -88.265625 C 12 -84.265625 10.140625 -80.765625 9.421875 -77.765625 Z M 9.421875 -77.765625 "/></g></g><g transform="translate(409.192364, 195.244988)"><g><path d="M 47.125 -69.625 C 45.269531 -67.195312 41.628906 -65.125 36.203125 -63.40625 C 30.773438 -61.695312 24.773438 -60.628906 18.203125 -60.203125 C 14.640625 -60.054688 12.070312 -59.628906 10.5 -58.921875 C 8.925781 -58.203125 7.640625 -56.914062 6.640625 -55.0625 C 4.640625 -51.488281 3.785156 -48.488281 4.078125 -46.0625 C 4.359375 -43.632812 5.710938 -41.492188 8.140625 -39.640625 C 14.421875 -36.347656 22.703125 -35.203125 32.984375 -36.203125 C 43.273438 -37.203125 57.488281 -41.988281 75.625 -50.5625 C 84.476562 -54.695312 92.191406 -57.976562 98.765625 -60.40625 C 105.328125 -62.976562 108.753906 -64.265625 109.046875 -64.265625 C 109.191406 -64.265625 109.332031 -63.976562 109.46875 -63.40625 C 109.613281 -62.976562 109.6875 -62.476562 109.6875 -61.90625 L 109.6875 -61.484375 C 109.539062 -59.203125 106.253906 -55.703125 99.828125 -50.984375 C 93.398438 -46.128906 85.90625 -41.488281 77.34375 -37.0625 C 72.625 -34.632812 67.835938 -32.347656 62.984375 -30.203125 C 58.128906 -28.203125 53.488281 -26.5625 49.0625 -25.28125 C 40.914062 -23 33.34375 -21.859375 26.34375 -21.859375 L 23.78125 -21.859375 C 16.070312 -22.285156 10.144531 -23.566406 6 -25.703125 C 2.28125 -27.566406 -0.71875 -30.066406 -3 -33.203125 C -5.425781 -36.347656 -6.851562 -39.707031 -7.28125 -43.28125 L -7.28125 -44.78125 C -7.28125 -46.914062 -6.851562 -49.195312 -6 -51.625 C -5 -54.625 -3.5 -57.625 -1.5 -60.625 C 2.21875 -66.34375 7.144531 -71.554688 13.28125 -76.265625 C 19.425781 -80.984375 25.710938 -84.054688 32.140625 -85.484375 C 33.421875 -85.765625 34.703125 -85.976562 35.984375 -86.125 L 39.640625 -86.125 C 44.492188 -85.695312 47.773438 -83.910156 49.484375 -80.765625 C 51.203125 -77.484375 50.414062 -73.769531 47.125 -69.625 Z M 27.640625 -74.125 C 24.921875 -72.695312 22.632812 -71.195312 20.78125 -69.625 C 19.78125 -68.914062 19.28125 -68.34375 19.28125 -67.90625 C 19.28125 -67.625 19.566406 -67.410156 20.140625 -67.265625 L 20.78125 -67.265625 C 21.632812 -67.265625 22.988281 -67.335938 24.84375 -67.484375 C 27.132812 -67.765625 30.207031 -68.835938 34.0625 -70.703125 C 35.34375 -71.410156 36.554688 -72.476562 37.703125 -73.90625 C 38.128906 -74.625 38.34375 -75.125 38.34375 -75.40625 C 38.34375 -75.832031 37.988281 -76.117188 37.28125 -76.265625 L 36.640625 -76.265625 C 35.921875 -76.265625 34.921875 -76.191406 33.640625 -76.046875 C 32.066406 -75.910156 30.066406 -75.269531 27.640625 -74.125 Z M 27.640625 -74.125 "/></g></g><g transform="translate(514.59405, 195.244988)"><g><path d="M 47.125 -69.625 C 45.269531 -67.195312 41.628906 -65.125 36.203125 -63.40625 C 30.773438 -61.695312 24.773438 -60.628906 18.203125 -60.203125 C 14.640625 -60.054688 12.070312 -59.628906 10.5 -58.921875 C 8.925781 -58.203125 7.640625 -56.914062 6.640625 -55.0625 C 4.640625 -51.488281 3.785156 -48.488281 4.078125 -46.0625 C 4.359375 -43.632812 5.710938 -41.492188 8.140625 -39.640625 C 14.421875 -36.347656 22.703125 -35.203125 32.984375 -36.203125 C 43.273438 -37.203125 57.488281 -41.988281 75.625 -50.5625 C 84.476562 -54.695312 92.191406 -57.976562 98.765625 -60.40625 C 105.328125 -62.976562 108.753906 -64.265625 109.046875 -64.265625 C 109.191406 -64.265625 109.332031 -63.976562 109.46875 -63.40625 C 109.613281 -62.976562 109.6875 -62.476562 109.6875 -61.90625 L 109.6875 -61.484375 C 109.539062 -59.203125 106.253906 -55.703125 99.828125 -50.984375 C 93.398438 -46.128906 85.90625 -41.488281 77.34375 -37.0625 C 72.625 -34.632812 67.835938 -32.347656 62.984375 -30.203125 C 58.128906 -28.203125 53.488281 -26.5625 49.0625 -25.28125 C 40.914062 -23 33.34375 -21.859375 26.34375 -21.859375 L 23.78125 -21.859375 C 16.070312 -22.285156 10.144531 -23.566406 6 -25.703125 C 2.28125 -27.566406 -0.71875 -30.066406 -3 -33.203125 C -5.425781 -36.347656 -6.851562 -39.707031 -7.28125 -43.28125 L -7.28125 -44.78125 C -7.28125 -46.914062 -6.851562 -49.195312 -6 -51.625 C -5 -54.625 -3.5 -57.625 -1.5 -60.625 C 2.21875 -66.34375 7.144531 -71.554688 13.28125 -76.265625 C 19.425781 -80.984375 25.710938 -84.054688 32.140625 -85.484375 C 33.421875 -85.765625 34.703125 -85.976562 35.984375 -86.125 L 39.640625 -86.125 C 44.492188 -85.695312 47.773438 -83.910156 49.484375 -80.765625 C 51.203125 -77.484375 50.414062 -73.769531 47.125 -69.625 Z M 27.640625 -74.125 C 24.921875 -72.695312 22.632812 -71.195312 20.78125 -69.625 C 19.78125 -68.914062 19.28125 -68.34375 19.28125 -67.90625 C 19.28125 -67.625 19.566406 -67.410156 20.140625 -67.265625 L 20.78125 -67.265625 C 21.632812 -67.265625 22.988281 -67.335938 24.84375 -67.484375 C 27.132812 -67.765625 30.207031 -68.835938 34.0625 -70.703125 C 35.34375 -71.410156 36.554688 -72.476562 37.703125 -73.90625 C 38.128906 -74.625 38.34375 -75.125 38.34375 -75.40625 C 38.34375 -75.832031 37.988281 -76.117188 37.28125 -76.265625 L 36.640625 -76.265625 C 35.921875 -76.265625 34.921875 -76.191406 33.640625 -76.046875 C 32.066406 -75.910156 30.066406 -75.269531 27.640625 -74.125 Z M 27.640625 -74.125 "/></g></g></g></g></svg>