<svg xmlns="http://www.w3.org/2000/svg" xmlns:xlink="http://www.w3.org/1999/xlink" width="1295" zoomAndPan="magnify" viewBox="0 0 375 270.96" height="351" preserveAspectRatio="xMidYMid meet" version="1.0"><defs><g/><clipPath id="435cc80388"><path d="M 66 25 L 374.972656 25 L 374.972656 241 L 66 241 Z M 66 25 " clip-rule="nonzero"/></clipPath></defs><g clip-path="url(#435cc80388)"><g fill="#000000" fill-opacity="1"><g transform="translate(63.626334, 193.695837)"><g><path d="M 134 -167.59375 C 137.519531 -166.332031 139.421875 -163.726562 139.703125 -159.78125 C 139.835938 -159.632812 139.90625 -159.421875 139.90625 -159.140625 C 139.90625 -155.054688 137.796875 -147.519531 133.578125 -136.53125 C 131.179688 -130.1875 128.007812 -122.4375 124.0625 -113.28125 C 120.257812 -104.125 115.46875 -93.132812 109.6875 -80.3125 C 108.414062 -77.351562 106.9375 -73.832031 105.25 -69.75 C 103.5625 -65.65625 101.726562 -61.21875 99.75 -56.4375 C 96.226562 -47.832031 92.5 -38.53125 88.5625 -28.53125 C 84.613281 -18.664062 81.019531 -9.4375 77.78125 -0.84375 C 72.84375 12.257812 68.332031 23.460938 64.25 32.765625 C 60.300781 42.203125 58.046875 46.921875 57.484375 46.921875 L 57.28125 46.921875 C 56.570312 46.921875 56.078125 46.003906 55.796875 44.171875 C 55.367188 42.203125 55.15625 38.890625 55.15625 34.234375 C 55.15625 25.078125 56.632812 14.582031 59.59375 2.75 C 62.550781 -9.226562 67.273438 -23.25 73.765625 -39.3125 C 76.859375 -47.0625 79.394531 -53.753906 81.375 -59.390625 C 83.34375 -65.023438 84.1875 -67.984375 83.90625 -68.265625 C 83.625 -68.546875 82.847656 -68.617188 81.578125 -68.484375 C 80.453125 -68.335938 79.253906 -68.050781 77.984375 -67.625 C 76.578125 -67.34375 73.476562 -66.710938 68.6875 -65.734375 C 63.894531 -64.890625 58.820312 -64.039062 53.46875 -63.1875 C 49.101562 -62.488281 42.550781 -61.503906 33.8125 -60.234375 L 20.5 -36.140625 C 14.582031 -25.429688 10.210938 -18.175781 7.390625 -14.375 C 4.578125 -10.570312 3.097656 -9.796875 2.953125 -12.046875 C 2.953125 -12.609375 3.941406 -15.144531 5.921875 -19.65625 C 7.890625 -24.164062 10.285156 -29.378906 13.109375 -35.296875 C 16.066406 -41.359375 18.601562 -46.78125 20.71875 -51.5625 C 22.820312 -56.351562 23.875 -58.890625 23.875 -59.171875 C 23.03125 -59.316406 22.1875 -59.390625 21.34375 -59.390625 C 20.5 -59.523438 19.375 -59.59375 17.96875 -59.59375 C 16.550781 -59.59375 15.140625 -60.019531 13.734375 -60.875 C 12.460938 -61.71875 11.476562 -62.5625 10.78125 -63.40625 C 9.09375 -65.800781 9.515625 -67.914062 12.046875 -69.75 C 14.578125 -71.71875 18.664062 -72.984375 24.3125 -73.546875 C 28.394531 -73.828125 31.210938 -74.53125 32.765625 -75.65625 C 34.453125 -76.644531 36.773438 -79.039062 39.734375 -82.84375 C 53.398438 -101.300781 66.710938 -117.15625 79.671875 -130.40625 C 92.773438 -143.789062 104.894531 -154.003906 116.03125 -161.046875 C 119.550781 -163.304688 122.300781 -165 124.28125 -166.125 C 126.25 -167.25 127.9375 -167.878906 129.34375 -168.015625 C 129.769531 -168.160156 130.125 -168.234375 130.40625 -168.234375 L 131.671875 -168.234375 C 132.378906 -168.085938 133.15625 -167.875 134 -167.59375 Z M 60.015625 -96.59375 C 56.210938 -91.800781 53.046875 -87.570312 50.515625 -83.90625 C 48.253906 -80.519531 47.195312 -78.476562 47.34375 -77.78125 L 47.34375 -77.5625 C 47.625 -77 49.664062 -76.71875 53.46875 -76.71875 L 54.3125 -76.71875 C 58.539062 -76.71875 63.40625 -77 68.90625 -77.5625 C 77.5 -78.40625 83.203125 -79.109375 86.015625 -79.671875 C 88.835938 -80.378906 90.8125 -81.507812 91.9375 -83.0625 C 92.78125 -84.1875 94.753906 -87.921875 97.859375 -94.265625 C 101.097656 -100.460938 104.617188 -107.4375 108.421875 -115.1875 C 112.929688 -124.488281 117.085938 -133.296875 120.890625 -141.609375 C 124.835938 -149.921875 126.8125 -154.359375 126.8125 -154.921875 L 126.8125 -155.125 C 126.664062 -155.6875 126.453125 -156.039062 126.171875 -156.1875 C 125.890625 -156.46875 125.46875 -156.539062 124.90625 -156.40625 L 124.703125 -156.40625 C 121.878906 -156.113281 116.875 -153.082031 109.6875 -147.3125 C 102.5 -141.53125 94.75 -134.414062 86.4375 -125.96875 C 81.789062 -121.3125 77.210938 -116.519531 72.703125 -111.59375 C 68.191406 -106.65625 63.960938 -101.65625 60.015625 -96.59375 Z M 60.015625 -96.59375 "/></g></g><g transform="translate(167.612039, 193.695837)"><g><path d="M 3.59375 -36.140625 C 0.632812 -38.671875 -1.195312 -40.785156 -1.90625 -42.484375 C -2.46875 -44.035156 -2.75 -46.5 -2.75 -49.875 L -2.75 -51.140625 C -2.75 -53.253906 -2.253906 -55.863281 -1.265625 -58.96875 C -0.421875 -62.207031 0.632812 -65.445312 1.90625 -68.6875 C 4.019531 -73.613281 6.203125 -78.050781 8.453125 -82 C 10.566406 -85.382812 12.1875 -87.144531 13.3125 -87.28125 L 13.734375 -87.28125 C 14.296875 -87 14.789062 -86.71875 15.21875 -86.4375 C 15.632812 -86.15625 15.84375 -85.875 15.84375 -85.59375 C 15.84375 -85.457031 15.492188 -83.695312 14.796875 -80.3125 C 14.085938 -76.925781 13.242188 -72.910156 12.265625 -68.265625 C 10.148438 -58.546875 9.65625 -52.414062 10.78125 -49.875 C 11.90625 -47.34375 15.566406 -46.078125 21.765625 -46.078125 C 23.878906 -46.078125 29.445312 -46.78125 38.46875 -48.1875 C 47.34375 -49.738281 56.992188 -51.5 67.421875 -53.46875 C 89.253906 -57.832031 104.613281 -60.648438 113.5 -61.921875 C 122.375 -63.191406 126.8125 -63.125 126.8125 -61.71875 C 126.8125 -61.15625 125.96875 -60.378906 124.28125 -59.390625 C 122.726562 -58.398438 120.613281 -57.34375 117.9375 -56.21875 C 112.863281 -53.96875 106.238281 -51.503906 98.0625 -48.828125 C 89.75 -46.148438 81.226562 -43.613281 72.5 -41.21875 C 63.476562 -38.675781 54.738281 -36.488281 46.28125 -34.65625 C 37.96875 -32.820312 31.273438 -31.765625 26.203125 -31.484375 C 21.554688 -31.203125 17.960938 -31.0625 15.421875 -31.0625 C 13.453125 -31.0625 12.046875 -31.132812 11.203125 -31.28125 C 9.367188 -31.695312 6.832031 -33.316406 3.59375 -36.140625 Z M 17.328125 -100.171875 C 16.765625 -101.160156 16.484375 -102.5 16.484375 -104.1875 C 16.484375 -105.882812 16.765625 -108 17.328125 -110.53125 C 18.171875 -115.75 19.441406 -119.273438 21.140625 -121.109375 C 22.546875 -122.929688 24.164062 -123.84375 26 -123.84375 C 27.125 -123.84375 28.390625 -123.421875 29.796875 -122.578125 C 32.335938 -121.035156 33.609375 -118.851562 33.609375 -116.03125 C 33.609375 -115.1875 33.46875 -114.34375 33.1875 -113.5 C 32.625 -110.957031 30.71875 -107.570312 27.46875 -103.34375 C 24.226562 -99.257812 21.976562 -97.21875 20.71875 -97.21875 C 20.289062 -97.21875 19.722656 -97.5 19.015625 -98.0625 C 18.316406 -98.625 17.753906 -99.328125 17.328125 -100.171875 Z M 17.328125 -100.171875 "/></g></g><g transform="translate(288.928697, 193.695837)"><g><path d="M 32.546875 -97.4375 C 32.972656 -95.039062 33.113281 -92.007812 32.96875 -88.34375 C 32.832031 -84.675781 30.648438 -80.519531 26.421875 -75.875 C 24.722656 -74.320312 23.242188 -72.984375 21.984375 -71.859375 C 20.566406 -70.867188 20.070312 -70.164062 20.5 -69.75 C 20.78125 -69.46875 21.695312 -69.46875 23.25 -69.75 C 24.65625 -70.03125 27.257812 -70.59375 31.0625 -71.4375 C 39.945312 -73.550781 46.78125 -74.609375 51.5625 -74.609375 C 56.21875 -74.460938 59.53125 -73.332031 61.5 -71.21875 C 63.757812 -68.6875 64.890625 -65.800781 64.890625 -62.5625 C 64.742188 -59.175781 62.976562 -54.3125 59.59375 -47.96875 C 57.769531 -44.59375 55.445312 -40.648438 52.625 -36.140625 C 49.8125 -31.628906 46.429688 -26.347656 42.484375 -20.296875 C 38.535156 -14.515625 35.296875 -9.367188 32.765625 -4.859375 C 30.222656 -0.347656 29.164062 2.113281 29.59375 2.53125 C 30.289062 3.238281 34.867188 0.703125 43.328125 -5.078125 C 51.640625 -10.847656 61.363281 -17.960938 72.5 -26.421875 C 81.375 -33.046875 88.835938 -38.609375 94.890625 -43.109375 C 100.953125 -47.765625 105.882812 -51.5 109.6875 -54.3125 C 117.019531 -59.664062 121.597656 -62.835938 123.421875 -63.828125 C 125.117188 -64.816406 126.175781 -65.097656 126.59375 -64.671875 C 126.738281 -64.535156 126.8125 -64.394531 126.8125 -64.25 C 126.8125 -63.820312 126.390625 -63.046875 125.546875 -61.921875 C 124.410156 -60.515625 122.859375 -58.6875 120.890625 -56.4375 C 117.085938 -52.34375 111.945312 -47.128906 105.46875 -40.796875 C 98.976562 -34.585938 92.210938 -28.242188 85.171875 -21.765625 C 77.984375 -15.285156 70.9375 -9.226562 64.03125 -3.59375 C 57.269531 1.90625 51.847656 5.921875 47.765625 8.453125 C 43.535156 10.992188 39.941406 12.96875 36.984375 14.375 C 34.023438 15.925781 31.488281 17.050781 29.375 17.75 C 26.414062 18.875 24.160156 19.4375 22.609375 19.4375 C 22.046875 19.4375 21.625 19.367188 21.34375 19.234375 C 19.789062 18.804688 18.664062 18.382812 17.96875 17.96875 C 15.144531 16.84375 13.382812 14.726562 12.6875 11.625 C 11.976562 8.382812 12.46875 4.789062 14.15625 0.84375 C 15 -0.988281 17.328125 -5.070312 21.140625 -11.40625 C 25.078125 -17.75 29.441406 -24.582031 34.234375 -31.90625 C 38.890625 -39.09375 42.90625 -45.4375 46.28125 -50.9375 C 49.664062 -56.425781 51.359375 -59.382812 51.359375 -59.8125 C 51.359375 -61.082031 49.738281 -61.578125 46.5 -61.296875 C 43.113281 -61.015625 38.742188 -60.097656 33.390625 -58.546875 C 30.859375 -57.703125 27.6875 -56.925781 23.875 -56.21875 C 19.9375 -55.65625 16.554688 -55.300781 13.734375 -55.15625 C 9.367188 -55.019531 6.34375 -55.234375 4.65625 -55.796875 C 2.957031 -56.359375 1.125 -57.835938 -0.84375 -60.234375 C -3.664062 -63.472656 -5.078125 -66.925781 -5.078125 -70.59375 L -5.078125 -70.796875 C -5.078125 -74.609375 -3.523438 -79.539062 -0.421875 -85.59375 C 2.816406 -92.21875 6.898438 -97.429688 11.828125 -101.234375 C 16.765625 -105.035156 21.132812 -106.9375 24.9375 -106.9375 C 27.195312 -106.9375 28.890625 -105.878906 30.015625 -103.765625 C 31.273438 -101.796875 32.117188 -99.6875 32.546875 -97.4375 Z M 9.296875 -76.71875 C 9.578125 -76.4375 9.929688 -76.367188 10.359375 -76.515625 C 11.054688 -76.515625 11.832031 -76.863281 12.6875 -77.5625 C 14.09375 -78.6875 15.5 -80.164062 16.90625 -82 C 18.59375 -84.257812 20.003906 -86.515625 21.140625 -88.765625 C 21.703125 -90.171875 21.984375 -91.15625 21.984375 -91.71875 C 21.984375 -92.144531 21.84375 -92.359375 21.5625 -92.359375 L 21.34375 -92.359375 C 19.789062 -92.359375 17.609375 -90.597656 14.796875 -87.078125 C 11.835938 -83.128906 10.003906 -79.675781 9.296875 -76.71875 Z M 9.296875 -76.71875 "/></g></g><g transform="translate(410.245355, 193.695837)"><g><path d="M 46.5 -68.6875 C 44.664062 -66.289062 41.070312 -64.25 35.71875 -62.5625 C 30.363281 -60.863281 24.445312 -59.804688 17.96875 -59.390625 C 14.445312 -59.242188 11.910156 -58.820312 10.359375 -58.125 C 8.804688 -57.414062 7.535156 -56.144531 6.546875 -54.3125 C 4.578125 -50.789062 3.734375 -47.832031 4.015625 -45.4375 C 4.296875 -43.039062 5.632812 -40.925781 8.03125 -39.09375 C 14.226562 -35.851562 22.398438 -34.726562 32.546875 -35.71875 C 42.691406 -36.707031 56.710938 -41.425781 74.609375 -49.875 C 83.335938 -53.957031 90.945312 -57.195312 97.4375 -59.59375 C 103.914062 -62.132812 107.296875 -63.40625 107.578125 -63.40625 C 107.710938 -63.40625 107.851562 -63.125 108 -62.5625 C 108.144531 -62.132812 108.21875 -61.640625 108.21875 -61.078125 L 108.21875 -60.65625 C 108.070312 -58.40625 104.828125 -54.953125 98.484375 -50.296875 C 92.148438 -45.503906 84.753906 -40.925781 76.296875 -36.5625 C 71.648438 -34.164062 66.929688 -31.910156 62.140625 -29.796875 C 57.347656 -27.828125 52.769531 -26.207031 48.40625 -24.9375 C 40.375 -22.6875 32.90625 -21.5625 26 -21.5625 L 23.453125 -21.5625 C 15.847656 -21.976562 10.003906 -23.242188 5.921875 -25.359375 C 2.253906 -27.191406 -0.703125 -29.660156 -2.953125 -32.765625 C -5.347656 -35.859375 -6.757812 -39.164062 -7.1875 -42.6875 L -7.1875 -44.171875 C -7.1875 -46.285156 -6.765625 -48.539062 -5.921875 -50.9375 C -4.929688 -53.894531 -3.453125 -56.851562 -1.484375 -59.8125 C 2.179688 -65.445312 7.046875 -70.585938 13.109375 -75.234375 C 19.160156 -79.890625 25.359375 -82.921875 31.703125 -84.328125 C 32.972656 -84.609375 34.238281 -84.820312 35.5 -84.96875 L 39.09375 -84.96875 C 43.882812 -84.539062 47.128906 -82.773438 48.828125 -79.671875 C 50.515625 -76.429688 49.738281 -72.769531 46.5 -68.6875 Z M 27.265625 -73.125 C 24.585938 -71.71875 22.332031 -70.238281 20.5 -68.6875 C 19.507812 -67.976562 19.015625 -67.414062 19.015625 -67 C 19.015625 -66.71875 19.296875 -66.503906 19.859375 -66.359375 L 20.5 -66.359375 C 21.34375 -66.359375 22.679688 -66.429688 24.515625 -66.578125 C 26.765625 -66.859375 29.796875 -67.914062 33.609375 -69.75 C 34.867188 -70.445312 36.066406 -71.503906 37.203125 -72.921875 C 37.617188 -73.617188 37.828125 -74.109375 37.828125 -74.390625 C 37.828125 -74.816406 37.476562 -75.097656 36.78125 -75.234375 L 36.140625 -75.234375 C 35.429688 -75.234375 34.445312 -75.164062 33.1875 -75.03125 C 31.632812 -74.882812 29.660156 -74.25 27.265625 -73.125 Z M 27.265625 -73.125 "/></g></g><g transform="translate(514.231061, 193.695837)"><g><path d="M 46.5 -68.6875 C 44.664062 -66.289062 41.070312 -64.25 35.71875 -62.5625 C 30.363281 -60.863281 24.445312 -59.804688 17.96875 -59.390625 C 14.445312 -59.242188 11.910156 -58.820312 10.359375 -58.125 C 8.804688 -57.414062 7.535156 -56.144531 6.546875 -54.3125 C 4.578125 -50.789062 3.734375 -47.832031 4.015625 -45.4375 C 4.296875 -43.039062 5.632812 -40.925781 8.03125 -39.09375 C 14.226562 -35.851562 22.398438 -34.726562 32.546875 -35.71875 C 42.691406 -36.707031 56.710938 -41.425781 74.609375 -49.875 C 83.335938 -53.957031 90.945312 -57.195312 97.4375 -59.59375 C 103.914062 -62.132812 107.296875 -63.40625 107.578125 -63.40625 C 107.710938 -63.40625 107.851562 -63.125 108 -62.5625 C 108.144531 -62.132812 108.21875 -61.640625 108.21875 -61.078125 L 108.21875 -60.65625 C 108.070312 -58.40625 104.828125 -54.953125 98.484375 -50.296875 C 92.148438 -45.503906 84.753906 -40.925781 76.296875 -36.5625 C 71.648438 -34.164062 66.929688 -31.910156 62.140625 -29.796875 C 57.347656 -27.828125 52.769531 -26.207031 48.40625 -24.9375 C 40.375 -22.6875 32.90625 -21.5625 26 -21.5625 L 23.453125 -21.5625 C 15.847656 -21.976562 10.003906 -23.242188 5.921875 -25.359375 C 2.253906 -27.191406 -0.703125 -29.660156 -2.953125 -32.765625 C -5.347656 -35.859375 -6.757812 -39.164062 -7.1875 -42.6875 L -7.1875 -44.171875 C -7.1875 -46.285156 -6.765625 -48.539062 -5.921875 -50.9375 C -4.929688 -53.894531 -3.453125 -56.851562 -1.484375 -59.8125 C 2.179688 -65.445312 7.046875 -70.585938 13.109375 -75.234375 C 19.160156 -79.890625 25.359375 -82.921875 31.703125 -84.328125 C 32.972656 -84.609375 34.238281 -84.820312 35.5 -84.96875 L 39.09375 -84.96875 C 43.882812 -84.539062 47.128906 -82.773438 48.828125 -79.671875 C 50.515625 -76.429688 49.738281 -72.769531 46.5 -68.6875 Z M 27.265625 -73.125 C 24.585938 -71.71875 22.332031 -70.238281 20.5 -68.6875 C 19.507812 -67.976562 19.015625 -67.414062 19.015625 -67 C 19.015625 -66.71875 19.296875 -66.503906 19.859375 -66.359375 L 20.5 -66.359375 C 21.34375 -66.359375 22.679688 -66.429688 24.515625 -66.578125 C 26.765625 -66.859375 29.796875 -67.914062 33.609375 -69.75 C 34.867188 -70.445312 36.066406 -71.503906 37.203125 -72.921875 C 37.617188 -73.617188 37.828125 -74.109375 37.828125 -74.390625 C 37.828125 -74.816406 37.476562 -75.097656 36.78125 -75.234375 L 36.140625 -75.234375 C 35.429688 -75.234375 34.445312 -75.164062 33.1875 -75.03125 C 31.632812 -74.882812 29.660156 -74.25 27.265625 -73.125 Z M 27.265625 -73.125 "/></g></g></g></g></svg>