<svg xmlns="http://www.w3.org/2000/svg" xmlns:xlink="http://www.w3.org/1999/xlink" width="1295" zoomAndPan="magnify" viewBox="0 0 375 270.96" height="351" preserveAspectRatio="xMidYMid meet" version="1.0"><defs><g/><clipPath id="05563e0692"><path d="M 80 11 L 374.972656 11 L 374.972656 254 L 80 254 Z M 80 11 " clip-rule="nonzero"/></clipPath><clipPath id="e05de1b895"><path d="M 224 73 L 294.972656 73 L 294.972656 202 L 224 202 Z M 224 73 " clip-rule="nonzero"/></clipPath><clipPath id="3ba146a554"><rect x="0" width="295" y="0" height="243"/></clipPath></defs><g clip-path="url(#05563e0692)"><g transform="matrix(1, 0, 0, 1, 80, 11)"><g clip-path="url(#3ba146a554)"><g fill="#ffffff" fill-opacity="1"><g transform="translate(1.017225, 181.392038)"><g><path d="M 135.703125 -169.734375 C 139.265625 -168.441406 141.191406 -165.800781 141.484375 -161.8125 C 141.617188 -161.664062 141.6875 -161.453125 141.6875 -161.171875 C 141.6875 -157.035156 139.546875 -149.398438 135.265625 -138.265625 C 132.835938 -131.847656 129.628906 -124 125.640625 -114.71875 C 121.785156 -105.445312 116.929688 -94.316406 111.078125 -81.328125 C 109.796875 -78.335938 108.300781 -74.769531 106.59375 -70.625 C 104.875 -66.488281 103.019531 -61.992188 101.03125 -57.140625 C 97.457031 -48.441406 93.675781 -39.023438 89.6875 -28.890625 C 85.6875 -18.898438 82.046875 -9.554688 78.765625 -0.859375 C 73.773438 12.410156 69.207031 23.753906 65.0625 33.171875 C 61.070312 42.734375 58.789062 47.515625 58.21875 47.515625 L 58 47.515625 C 57.289062 47.515625 56.789062 46.585938 56.5 44.734375 C 56.070312 42.734375 55.859375 39.378906 55.859375 34.671875 C 55.859375 25.398438 57.359375 14.769531 60.359375 2.78125 C 63.359375 -9.34375 68.140625 -23.539062 74.703125 -39.8125 C 77.835938 -47.65625 80.40625 -54.429688 82.40625 -60.140625 C 84.40625 -65.847656 85.257812 -68.847656 84.96875 -69.140625 C 84.6875 -69.421875 83.90625 -69.488281 82.625 -69.34375 C 81.476562 -69.207031 80.265625 -68.921875 78.984375 -68.484375 C 77.554688 -68.203125 74.414062 -67.5625 69.5625 -66.5625 C 64.707031 -65.707031 59.570312 -64.851562 54.15625 -64 C 49.726562 -63.28125 43.09375 -62.28125 34.25 -61 L 20.765625 -36.59375 C 14.765625 -25.75 10.335938 -18.398438 7.484375 -14.546875 C 4.628906 -10.703125 3.132812 -9.921875 3 -12.203125 C 3 -12.773438 4 -15.34375 6 -19.90625 C 7.988281 -24.46875 10.410156 -29.75 13.265625 -35.75 C 16.265625 -41.882812 18.832031 -47.375 20.96875 -52.21875 C 23.113281 -57.070312 24.1875 -59.644531 24.1875 -59.9375 C 23.332031 -60.070312 22.476562 -60.140625 21.625 -60.140625 C 20.757812 -60.285156 19.613281 -60.359375 18.1875 -60.359375 C 16.757812 -60.359375 15.332031 -60.785156 13.90625 -61.640625 C 12.625 -62.492188 11.628906 -63.347656 10.921875 -64.203125 C 9.203125 -66.628906 9.628906 -68.769531 12.203125 -70.625 C 14.765625 -72.625 18.898438 -73.910156 24.609375 -74.484375 C 28.753906 -74.765625 31.609375 -75.476562 33.171875 -76.625 C 34.890625 -77.625 37.242188 -80.050781 40.234375 -83.90625 C 54.078125 -102.59375 67.5625 -118.644531 80.6875 -132.0625 C 93.957031 -145.613281 106.226562 -155.957031 117.5 -163.09375 C 121.070312 -165.375 123.859375 -167.085938 125.859375 -168.234375 C 127.847656 -169.367188 129.554688 -170.007812 130.984375 -170.15625 C 131.410156 -170.300781 131.769531 -170.375 132.0625 -170.375 L 133.34375 -170.375 C 134.050781 -170.226562 134.835938 -170.015625 135.703125 -169.734375 Z M 60.78125 -97.8125 C 56.925781 -92.957031 53.71875 -88.675781 51.15625 -84.96875 C 48.875 -81.539062 47.800781 -79.472656 47.9375 -78.765625 L 47.9375 -78.546875 C 48.226562 -77.972656 50.300781 -77.6875 54.15625 -77.6875 L 55 -77.6875 C 59.28125 -77.6875 64.207031 -77.972656 69.78125 -78.546875 C 78.476562 -79.398438 84.253906 -80.113281 87.109375 -80.6875 C 89.960938 -81.40625 91.960938 -82.546875 93.109375 -84.109375 C 93.960938 -85.253906 95.957031 -89.035156 99.09375 -95.453125 C 102.375 -101.734375 105.941406 -108.800781 109.796875 -116.65625 C 114.367188 -126.070312 118.578125 -134.988281 122.421875 -143.40625 C 126.421875 -151.820312 128.421875 -156.316406 128.421875 -156.890625 L 128.421875 -157.109375 C 128.273438 -157.671875 128.0625 -158.023438 127.78125 -158.171875 C 127.488281 -158.453125 127.0625 -158.523438 126.5 -158.390625 L 126.28125 -158.390625 C 123.425781 -158.097656 118.359375 -155.03125 111.078125 -149.1875 C 103.804688 -143.332031 95.960938 -136.125 87.546875 -127.5625 C 82.835938 -122.851562 78.195312 -118.003906 73.625 -113.015625 C 69.0625 -108.015625 64.78125 -102.945312 60.78125 -97.8125 Z M 60.78125 -97.8125 "/></g></g></g><g fill="#ffffff" fill-opacity="1"><g transform="translate(106.320164, 181.392038)"><g><path d="M 3.640625 -36.59375 C 0.640625 -39.164062 -1.210938 -41.304688 -1.921875 -43.015625 C -2.492188 -44.585938 -2.78125 -47.085938 -2.78125 -50.515625 L -2.78125 -51.796875 C -2.78125 -53.929688 -2.28125 -56.570312 -1.28125 -59.71875 C -0.425781 -63 0.640625 -66.28125 1.921875 -69.5625 C 4.066406 -74.550781 6.28125 -79.046875 8.5625 -83.046875 C 10.695312 -86.472656 12.335938 -88.253906 13.484375 -88.390625 L 13.90625 -88.390625 C 14.476562 -88.109375 14.976562 -87.828125 15.40625 -87.546875 C 15.832031 -87.253906 16.046875 -86.96875 16.046875 -86.6875 C 16.046875 -86.539062 15.691406 -84.753906 14.984375 -81.328125 C 14.265625 -77.910156 13.40625 -73.847656 12.40625 -69.140625 C 10.269531 -59.285156 9.773438 -53.078125 10.921875 -50.515625 C 12.054688 -47.941406 15.765625 -46.65625 22.046875 -46.65625 C 24.179688 -46.65625 29.816406 -47.367188 38.953125 -48.796875 C 47.941406 -50.367188 57.71875 -52.15625 68.28125 -54.15625 C 90.394531 -58.570312 105.945312 -61.425781 114.9375 -62.71875 C 123.925781 -64 128.421875 -63.925781 128.421875 -62.5 C 128.421875 -61.925781 127.566406 -61.140625 125.859375 -60.140625 C 124.285156 -59.140625 122.144531 -58.070312 119.4375 -56.9375 C 114.289062 -54.65625 107.582031 -52.15625 99.3125 -49.4375 C 90.894531 -46.726562 82.257812 -44.160156 73.40625 -41.734375 C 64.28125 -39.171875 55.4375 -36.960938 46.875 -35.109375 C 38.457031 -33.242188 31.679688 -32.171875 26.546875 -31.890625 C 21.835938 -31.609375 18.195312 -31.46875 15.625 -31.46875 C 13.625 -31.46875 12.195312 -31.535156 11.34375 -31.671875 C 9.488281 -32.097656 6.921875 -33.738281 3.640625 -36.59375 Z M 17.546875 -101.453125 C 16.972656 -102.453125 16.6875 -103.804688 16.6875 -105.515625 C 16.6875 -107.234375 16.972656 -109.375 17.546875 -111.9375 C 18.398438 -117.21875 19.6875 -120.785156 21.40625 -122.640625 C 22.832031 -124.492188 24.472656 -125.421875 26.328125 -125.421875 C 27.460938 -125.421875 28.742188 -124.992188 30.171875 -124.140625 C 32.742188 -122.566406 34.03125 -120.351562 34.03125 -117.5 C 34.03125 -116.644531 33.890625 -115.789062 33.609375 -114.9375 C 33.035156 -112.363281 31.109375 -108.9375 27.828125 -104.65625 C 24.546875 -100.519531 22.257812 -98.453125 20.96875 -98.453125 C 20.539062 -98.453125 19.972656 -98.738281 19.265625 -99.3125 C 18.546875 -99.882812 17.972656 -100.597656 17.546875 -101.453125 Z M 17.546875 -101.453125 "/></g></g></g><g clip-path="url(#e05de1b895)"><g fill="#ffffff" fill-opacity="1"><g transform="translate(229.17359, 181.392038)"><g><path d="M 32.96875 -98.671875 C 33.394531 -96.242188 33.535156 -93.175781 33.390625 -89.46875 C 33.242188 -85.757812 31.03125 -81.550781 26.75 -76.84375 C 25.039062 -75.269531 23.546875 -73.910156 22.265625 -72.765625 C 20.835938 -71.773438 20.335938 -71.0625 20.765625 -70.625 C 21.046875 -70.34375 21.972656 -70.34375 23.546875 -70.625 C 24.972656 -70.914062 27.613281 -71.488281 31.46875 -72.34375 C 40.457031 -74.476562 47.375 -75.546875 52.21875 -75.546875 C 56.925781 -75.410156 60.28125 -74.269531 62.28125 -72.125 C 64.5625 -69.5625 65.703125 -66.640625 65.703125 -63.359375 C 65.566406 -59.929688 63.785156 -55.007812 60.359375 -48.59375 C 58.503906 -45.164062 56.148438 -41.164062 53.296875 -36.59375 C 50.441406 -32.03125 47.015625 -26.679688 43.015625 -20.546875 C 39.023438 -14.691406 35.742188 -9.484375 33.171875 -4.921875 C 30.609375 -0.359375 29.539062 2.132812 29.96875 2.5625 C 30.675781 3.28125 35.3125 0.710938 43.875 -5.140625 C 52.289062 -10.984375 62.132812 -18.1875 73.40625 -26.75 C 82.394531 -33.457031 89.960938 -39.09375 96.109375 -43.65625 C 102.242188 -48.363281 107.234375 -52.144531 111.078125 -55 C 118.503906 -60.425781 123.144531 -63.640625 125 -64.640625 C 126.707031 -65.640625 127.773438 -65.925781 128.203125 -65.5 C 128.347656 -65.351562 128.421875 -65.207031 128.421875 -65.0625 C 128.421875 -64.632812 127.992188 -63.851562 127.140625 -62.71875 C 125.992188 -61.289062 124.421875 -59.429688 122.421875 -57.140625 C 118.578125 -53.003906 113.367188 -47.726562 106.796875 -41.3125 C 100.234375 -35.03125 93.382812 -28.609375 86.25 -22.046875 C 78.976562 -15.484375 71.847656 -9.347656 64.859375 -3.640625 C 58.003906 1.921875 52.507812 5.988281 48.375 8.5625 C 44.09375 11.125 40.453125 13.117188 37.453125 14.546875 C 34.460938 16.117188 31.894531 17.265625 29.75 17.984375 C 26.75 19.117188 24.46875 19.6875 22.90625 19.6875 C 22.332031 19.6875 21.90625 19.617188 21.625 19.484375 C 20.050781 19.046875 18.90625 18.613281 18.1875 18.1875 C 15.332031 17.050781 13.550781 14.910156 12.84375 11.765625 C 12.125 8.484375 12.625 4.847656 14.34375 0.859375 C 15.195312 -0.992188 17.550781 -5.132812 21.40625 -11.5625 C 25.394531 -17.976562 29.816406 -24.894531 34.671875 -32.3125 C 39.378906 -39.59375 43.445312 -46.015625 46.875 -51.578125 C 50.300781 -57.148438 52.015625 -60.148438 52.015625 -60.578125 C 52.015625 -61.859375 50.375 -62.351562 47.09375 -62.0625 C 43.664062 -61.78125 39.238281 -60.851562 33.8125 -59.28125 C 31.25 -58.425781 28.039062 -57.644531 24.1875 -56.9375 C 20.1875 -56.363281 16.757812 -56.003906 13.90625 -55.859375 C 9.488281 -55.722656 6.421875 -55.9375 4.703125 -56.5 C 2.992188 -57.070312 1.140625 -58.570312 -0.859375 -61 C -3.710938 -64.28125 -5.140625 -67.773438 -5.140625 -71.484375 L -5.140625 -71.703125 C -5.140625 -75.554688 -3.566406 -80.550781 -0.421875 -86.6875 C 2.859375 -93.394531 6.992188 -98.671875 11.984375 -102.515625 C 16.984375 -106.367188 21.40625 -108.296875 25.25 -108.296875 C 27.539062 -108.296875 29.253906 -107.226562 30.390625 -105.09375 C 31.671875 -103.09375 32.53125 -100.953125 32.96875 -98.671875 Z M 9.421875 -77.6875 C 9.703125 -77.40625 10.054688 -77.335938 10.484375 -77.484375 C 11.203125 -77.484375 11.988281 -77.835938 12.84375 -78.546875 C 14.269531 -79.691406 15.695312 -81.191406 17.125 -83.046875 C 18.832031 -85.328125 20.257812 -87.609375 21.40625 -89.890625 C 21.976562 -91.316406 22.265625 -92.316406 22.265625 -92.890625 C 22.265625 -93.316406 22.117188 -93.53125 21.828125 -93.53125 L 21.625 -93.53125 C 20.050781 -93.53125 17.835938 -91.75 14.984375 -88.1875 C 11.984375 -84.1875 10.128906 -80.6875 9.421875 -77.6875 Z M 9.421875 -77.6875 "/></g></g></g></g></g></g></g></svg>